<?xml version="1.0" encoding="utf-8"?>
<!-- Generator: Adobe Illustrator 24.0.1, SVG Export Plug-In . SVG Version: 6.00 Build 0)  -->
<svg version="1.1" id="Layer_1" xmlns="http://www.w3.org/2000/svg" xmlns:xlink="http://www.w3.org/1999/xlink" x="0px" y="0px"
	 viewBox="0 0 512 512" style="enable-background:new 0 0 512 512;" xml:space="preserve">
<style type="text/css">
	.st0{fill:#F44336;}
	.st1{fill:#FAFAFA;}
</style>
<title>delete</title>
<path class="st0" d="M256,0C114.8,0,0,114.8,0,256s114.8,256,256,256s256-114.8,256-256S397.2,0,256,0z"/>
<path class="st1" d="M350.3,320.1c8.5,8.2,8.7,21.7,0.6,30.2c-8.2,8.5-21.7,8.7-30.2,0.6c-0.2-0.2-0.4-0.4-0.6-0.6L256,286.2
	l-64.1,64.1c-8.5,8.2-22,7.9-30.2-0.6c-8-8.3-8-21.3,0-29.6l64.1-64.1l-64.1-64.1c-8.2-8.5-7.9-22,0.6-30.2c8.3-8,21.3-8,29.6,0
	l64.1,64.1l64.1-64.1c8.5-8.2,22-7.9,30.2,0.6c8,8.3,8,21.3,0,29.6L286.2,256L350.3,320.1z"/>
</svg>
