<?xml version="1.0" encoding="utf-8"?>
<!-- Generator: Adobe Illustrator 24.0.1, SVG Export Plug-In . SVG Version: 6.00 Build 0)  -->
<svg version="1.1" id="Outline" xmlns="http://www.w3.org/2000/svg" xmlns:xlink="http://www.w3.org/1999/xlink" x="0px" y="0px"
	 viewBox="0 0 480 496" style="enable-background:new 0 0 480 496;" xml:space="preserve">
<style type="text/css">
	.st0{fill:#FFFFFF;}
</style>
<title>food-delivery</title>
<path class="st0" d="M216,351.6V256c0-4.4-3.6-8-8-8c-48.9,0-55.7,83.8-56,87.4c-0.2,3.2,1.5,6.3,4.4,7.8l11.6,5.8v2.7l-6.2,62
	c-1.3,13.2,8.3,25,21.5,26.3c0,0,0,0,0,0c0.8,0.1,1.6,0.1,2.4,0.1h12.6c13.3,0,24-10.7,24-24c0-0.8,0-1.6-0.1-2.4L216,351.6z
	 M168.6,331.3c1.4-11.2,3.9-22.3,7.4-33c6.1-18.1,14.2-29.1,24.1-32.9V344h-16c0-3-1.7-5.8-4.4-7.1L168.6,331.3z M204.2,421.3
	c-1.5,1.7-3.7,2.6-5.9,2.6h-12.6c-4.4,0-8-3.6-8-8c0-0.3,0-0.5,0-0.8l5.5-55.2h17.5l5.5,55.2C206.5,417.4,205.8,419.7,204.2,421.3
	L204.2,421.3z"/>
<path class="st0" d="M472,0h-64c-4.4,0-8,3.6-8,8v8H233c-7.2,0-14.3,1.8-20.7,5.3L134,64H40c-13.5,0-24,14.1-24,32
	c0,16.8,9.2,30.1,21.3,31.8L1.3,249.9l-0.1,0.3c-0.8,3.2-1.2,6.4-1.2,9.7V488c0,4.4,3.6,8,8,8h360c4.4,0,8-3.6,8-8V260.6
	c0-3.8-0.6-7.6-1.6-11.3L341,136c22.5-0.2,41.1-17.6,42.8-40H400v16c0,4.4,3.6,8,8,8h64c4.4,0,8-3.6,8-8V8C480,3.6,476.4,0,472,0z
	 M32,96c0-9.8,4.7-16,8-16h228.7l-32,32H40C36.7,112,32,105.8,32,96z M281.2,250.2c-0.8,3.2-1.2,6.4-1.2,9.7V480H16V259.9
	c0-1.9,0.2-3.8,0.7-5.7L54,128h168.2c-9.9,16.8-4.4,38.4,12.4,48.3c12.4,7.3,28.1,6.4,39.5-2.5l38.5-29.9l-31.3,106L281.2,250.2z
	 M328,459.3l20.7,20.7h-41.4L328,459.3z M359,253.8c0.7,2.2,1,4.5,1,6.8v208.1l-24-24V272c0-4.4-3.6-8-8-8s-8,3.6-8,8v172.7l-24,24
	V259.9c0-1.9,0.2-3.8,0.7-5.7l31.3-106L359,253.8z M400,80h-19.2c-7,0-12.8,5.7-12.8,12.8c0,15-12.2,27.2-27.2,27.2h-19.7
	c-2.5,0-4.9,0.8-6.9,2.4l-49.9,38.8c-8.4,6.5-20.5,4.9-27-3.5c-5.9-7.6-5.2-18.5,1.6-25.3l54.8-54.8c3.1-3.1,3.1-8.2,0-11.3
	c-1.5-1.5-3.5-2.3-5.7-2.3H167.4l52.6-28.7c4-2.2,8.5-3.3,13.1-3.3h167V80z M464,104h-48V16h48V104z"/>
<path class="st0" d="M144,256c0-4.4-3.6-8-8-8s-8,3.6-8,8v24h-16v-24c0-4.4-3.6-8-8-8s-8,3.6-8,8v24H80v-24c0-4.4-3.6-8-8-8
	s-8,3.6-8,8v32l0,0c0,1.2,0.3,2.5,0.8,3.6l15,30l-6.6,92.7c-0.9,13.2,9,24.7,22.2,25.6c0.6,0,1.1,0.1,1.7,0.1h13.6
	c13.3,0,24-10.7,24-24c0-0.6,0-1.1-0.1-1.7l-6.6-92.7l15-30c0.6-1.1,0.9-2.3,0.9-3.6l0,0V256z M123.1,296l-8,16H92.9l-8-16H123.1z
	 M116.7,421.5c-1.5,1.6-3.6,2.6-5.8,2.5H97.2c-4.4,0-8-3.6-8-8v-0.6l6.3-87.4h17.1l6.2,87.4C119,417.6,118.2,419.8,116.7,421.5z"/>
</svg>
