<svg id="Outline" xmlns="http://www.w3.org/2000/svg" xmlns:xlink="http://www.w3.org/1999/xlink" viewBox="0 0 480 496"><defs><style>.cls-1{fill:url(#linear-gradient);}.cls-2{fill:url(#linear-gradient-2);}.cls-3{fill:url(#linear-gradient-3);}</style><linearGradient id="linear-gradient" x1="151.98" y1="344" x2="222.32" y2="344" gradientUnits="userSpaceOnUse"><stop offset="0" stop-color="#f98443"/><stop offset="1" stop-color="#f74873"/></linearGradient><linearGradient id="linear-gradient-2" x1="0" y1="248" x2="480" y2="248" xlink:href="#linear-gradient"/><linearGradient id="linear-gradient-3" x1="64" y1="343.98" x2="144" y2="343.98" xlink:href="#linear-gradient"/></defs><title>food-delivery</title><path class="cls-1" d="M216,351.6V256a8,8,0,0,0-8-8c-48.86,0-55.71,83.83-56,87.4a8,8,0,0,0,4.4,7.75l11.6,5.79v2.66l-6.2,62a24,24,0,0,0,21.48,26.28q1.2.12,2.4.12h12.64a24,24,0,0,0,24-24,23.76,23.76,0,0,0-.12-2.39Zm-47.45-20.27a175.89,175.89,0,0,1,7.36-33c6.15-18.09,14.23-29.1,24.09-32.85V344H184a8,8,0,0,0-4.42-7.15Zm35.7,90a7.93,7.93,0,0,1-5.93,2.63H185.68a8,8,0,0,1-8-8c0-.27,0-.53,0-.8L183.2,360h17.52l5.52,55.2a7.89,7.89,0,0,1-2,6.17Z" transform="translate(0 0)"/><path class="cls-2" d="M472,0H408a8,8,0,0,0-8,8v8H233a43.39,43.39,0,0,0-20.7,5.28L134,64H40C26.54,64,16,78.06,16,96c0,16.75,9.19,30.1,21.35,31.81L1.28,249.91l-.09.33A40.13,40.13,0,0,0,0,259.94V488a8,8,0,0,0,8,8H368a8,8,0,0,0,8-8V260.61a40,40,0,0,0-1.63-11.29L341,136a43.27,43.27,0,0,0,42.84-40H400v16a8,8,0,0,0,8,8h64a8,8,0,0,0,8-8V8A8,8,0,0,0,472,0ZM32,96c0-9.77,4.74-16,8-16H268.69l-32,32H40C36.74,112,32,105.77,32,96ZM281.19,250.24a40.13,40.13,0,0,0-1.19,9.7V480H16V259.94a24.09,24.09,0,0,1,.68-5.67L54,128H222.21a35.25,35.25,0,0,0,51.9,45.83l38.49-29.94-31.32,106ZM328,459.31,348.69,480H307.31Zm31-205.47a23.91,23.91,0,0,1,1,6.77V468.69l-24-24V272a8,8,0,0,0-16,0V444.69l-24,24V259.94a24.09,24.09,0,0,1,.68-5.67l31.3-106ZM400,80H380.77A12.79,12.79,0,0,0,368,92.77,27.27,27.27,0,0,1,340.77,120H321.11a11.26,11.26,0,0,0-6.9,2.37L264.29,161.2a19.23,19.23,0,0,1-25.4-28.77l54.77-54.77A8,8,0,0,0,288,64H167.37l52.57-28.68A27.34,27.34,0,0,1,233,32H400Zm64,24H416V16h48Z" transform="translate(0 0)"/><path class="cls-3" d="M144,256a8,8,0,0,0-16,0v24H112V256a8,8,0,0,0-16,0v24H80V256a8,8,0,0,0-16,0v32h0a8.08,8.08,0,0,0,.84,3.58l15,30-6.61,92.67A24,24,0,0,0,95.45,439.9q.85.06,1.71.06H110.8a24,24,0,0,0,24-24,14,14,0,0,0-.07-1.71l-6.61-92.67,15-30A7.83,7.83,0,0,0,144,288h0Zm-20.94,40-8,16H92.94l-8-16Zm-6.39,125.45a7.88,7.88,0,0,1-5.85,2.55H97.18a8,8,0,0,1-8-8v-.57L95.45,328h17.1l6.24,87.43A7.91,7.91,0,0,1,116.67,421.45Z" transform="translate(0 0)"/></svg>