<?xml version="1.0" encoding="utf-8"?>
<!-- Generator: Adobe Illustrator 24.0.1, SVG Export Plug-In . SVG Version: 6.00 Build 0)  -->
<svg version="1.1" id="Capa_1" xmlns="http://www.w3.org/2000/svg" xmlns:xlink="http://www.w3.org/1999/xlink" x="0px" y="0px"
	 viewBox="0 0 395 395" style="enable-background:new 0 0 395 395;" xml:space="preserve">
<style type="text/css">
	.st0{fill:#FFFFFF;}
</style>
<g>
	<g>
		<g>
			<path class="st0" d="M99.8,175.8c-19.1,0-34.6,15.5-34.6,34.6S80.7,245,99.8,245s34.6-15.5,34.6-34.6S119,175.8,99.8,175.8z
				 M99.8,230.9L99.8,230.9c-11.3,0-20.5-9.2-20.5-20.5s9.2-20.5,20.5-20.5s20.5,9.2,20.5,20.5S111.2,230.9,99.8,230.9z"/>
			<path class="st0" d="M318.2,203.3H158.5c-3.9,0-7,3.2-7,7s3.2,7,7,7h159.7c3.9,0,7-3.2,7-7S322.2,203.3,318.2,203.3z"/>
			<path class="st0" d="M99.8,76.8c-19.1,0-34.6,15.5-34.6,34.6s15.5,34.6,34.6,34.6s34.6-15.5,34.6-34.6S119,76.8,99.8,76.8z
				 M99.8,132c-11.3,0-20.5-9.2-20.5-20.5S88.5,91,99.8,91s20.5,9.2,20.5,20.5S111.2,132,99.8,132z"/>
			<path class="st0" d="M158.5,118.5h159.7c3.9,0,7-3.2,7-7s-3.2-7-7-7H158.5c-3.9,0-7,3.2-7,7S154.6,118.5,158.5,118.5z"/>
			<path class="st0" d="M99.8,274.7c-19.1,0-34.6,15.5-34.6,34.6c0,19.1,15.5,34.6,34.6,34.6s34.6-15.5,34.6-34.6
				S119,274.7,99.8,274.7z M120.3,309.4c0,11.3-9.2,20.5-20.5,20.5l0,0c-11.3,0-20.5-9.2-20.5-20.5c0-11.3,9.2-20.5,20.5-20.5
				S120.3,298,120.3,309.4L120.3,309.4z"/>
			<path class="st0" d="M318.2,302.3H158.5c-3.9,0-7,3.2-7,7c0,3.9,3.2,7,7,7h159.7c3.9,0,7-3.2,7-7
				C325.3,305.4,322.2,302.3,318.2,302.3z"/>
		</g>
	</g>
</g>
</svg>
