<?xml version="1.0" encoding="utf-8"?>
<!-- Generator: Adobe Illustrator 24.0.1, SVG Export Plug-In . SVG Version: 6.00 Build 0)  -->
<svg version="1.1" id="Layer_1" xmlns="http://www.w3.org/2000/svg" xmlns:xlink="http://www.w3.org/1999/xlink" x="0px" y="0px"
	 viewBox="0 0 512 512" style="enable-background:new 0 0 512 512;" xml:space="preserve">
<style type="text/css">
	.st0{fill:#FFFFFF;}
</style>
<g id="financail-money-payment-pay-hand">
	<polygon class="st0" points="464,136 464,113.1 290.2,136 	"/>
	<rect x="48" y="448" class="st0" width="160" height="32"/>
	<polygon class="st0" points="448,74.3 249.5,125.2 448,99.1 	"/>
	<path class="st0" d="M128,152v140.2l56.9-58.9c11.2-11.2,28-14.8,42.8-9.1c13.1-42.2,58-65.7,100.1-52.5s65.7,58,52.5,100.1
		c-13.1,42.2-58,65.7-100.1,52.5c-17.1-5.3-32-16.3-42.1-31.1L187.3,344H480V152H128z M200,176h-17c-2.9,11.3-11.7,20.1-23,23v17
		h-16v-24c0-4.4,3.6-8,8-8c8.8,0,16-7.2,16-16c0-4.4,3.6-8,8-8h24V176z M464,296c0,4.4-3.6,8-8,8c-8.8,0-16,7.2-16,16
		c0,4.4-3.6,8-8,8h-24v-16h17c2.9-11.3,11.7-20.1,23-23v-17h16V296z M464,224h-16v-17c-11.3-2.9-20.1-11.7-23-23h-17v-16h24
		c4.4,0,8,3.6,8,8c0,8.8,7.2,16,16,16c4.4,0,8,3.6,8,8V224z"/>
	<path class="st0" d="M304,312c35.3,0,64-28.6,64.1-63.9s-28.6-64-63.9-64.1c-29.8,0-55.6,20.5-62.4,49.4c5.6,5.7,9.4,13,10.9,21
		c0.3,2.6,0.6,4.6,0.6,6.8c-0.1,6.5-1.7,12.8-4.6,18.6C259.9,299.7,281.1,312.1,304,312z"/>
	<path class="st0" d="M200,432v-20.1c0-10.6-4.2-20.8-11.8-28.3l-25.9-25.9l0.1-0.1c-0.8-0.7-1.4-1.6-1.8-2.6
		c-1.3-3-0.6-6.4,1.7-8.7l67.9-67.9c4.5-4.5,7-10.6,7-17c-0.1-1.3-0.2-2.9-0.4-4.5c-2.6-13-15.2-21.5-28.3-18.9
		c-4.7,0.9-8.9,3.2-12.3,6.5l-70.6,73c-2.3,2.4-5.8,3.1-8.8,1.9c-3-1.3-4.9-4.2-5-7.4V144c0-4.4,3.6-8,8-8h19.4l37-64.2
		c2.1-3.6,3.2-7.7,3.2-11.9c0-13.3-10.8-24.1-24.1-24.1c-2,0-4.1,0.3-6,0.8c-6.2,1.6-11.4,5.7-14.6,11.2L35.3,220.6
		c-2.2,3.6-3.3,7.8-3.3,12v99c0,2.2,0.3,4.5,0.9,6.6L59.7,432H200z"/>
</g>
</svg>
