<svg xmlns="http://www.w3.org/2000/svg" viewBox="0 0 499.1 312.3"><defs><style>.cls-1{fill:#fff;}.cls-1,.cls-2{stroke:#000;stroke-miterlimit:10;}.cls-2{fill:#f98443;}</style></defs><title>Asset 1</title><g id="Layer_2" data-name="Layer 2"><g id="Layer_1-2" data-name="Layer 1"><g id="Cooking-kitchen-utensil"><circle class="cls-1" cx="249.5" cy="27.2" r="26.7" transform="translate(182.69 269.12) rotate(-80.78)"/><path class="cls-1" d="M.5,302.9a8.92,8.92,0,0,0,8.9,8.9H489.7a8.92,8.92,0,0,0,8.9-8.9V294H.5Z"/><path class="cls-1" d="M471.7,276.2C466.8,153.5,363.3,58,240.6,63,124.8,67.6,31.9,160.4,27.4,276.2H54.2a195.32,195.32,0,0,1,23-83.8l15.7,8.4A177.38,177.38,0,0,0,72,276.2Zm-44.3-26.7h17.8v17.8H427.4Zm-88.9,0h71.2v17.8H338.5ZM90.9,170.6c3-4.2,6.2-8.3,9.6-12.2L114.1,170c-3,3.6-6,7.2-8.7,11.1Z"/><circle class="cls-1" cx="395.9" cy="130.2" r="82"/><path class="cls-2" d="M438.2,140.7H403.9V175a8,8,0,0,1-16,0V140.7H353.6a8,8,0,0,1,0-16h34.3V90.4a8,8,0,1,1,16,0v34.3h34.3a8,8,0,0,1,8,8A7.9,7.9,0,0,1,438.2,140.7Z"/></g></g></g></svg>