<?xml version="1.0" encoding="utf-8"?>
<!-- Generator: Adobe Illustrator 24.0.1, SVG Export Plug-In . SVG Version: 6.00 Build 0)  -->
<svg version="1.1" id="Capa_1" xmlns="http://www.w3.org/2000/svg" xmlns:xlink="http://www.w3.org/1999/xlink" x="0px" y="0px"
	 viewBox="0 0 494.5 494.5" style="enable-background:new 0 0 494.5 494.5;" xml:space="preserve">
<style type="text/css">
	.st0{fill:url(#SVGID_1_);}
	.st1{fill:url(#SVGID_2_);}
</style>
<title>add</title>
<linearGradient id="SVGID_1_" gradientUnits="userSpaceOnUse" x1="71.9897" y1="220.8585" x2="349.7156" y2="220.8585">
	<stop  offset="0" style="stop-color:#F98443"/>
	<stop  offset="1" style="stop-color:#F74873"/>
</linearGradient>
<path class="st0" d="M332.4,221.5c-6.9-3.3-14-6.2-21.3-8.6c42.6-31.9,51.3-92.3,19.4-134.9s-92.3-51.3-134.9-19.4
	s-51.3,92.3-19.4,134.9c5.5,7.4,12.1,14,19.5,19.5c-62.5,20.6-109.3,72.9-122.8,137.3c-4.9,23.3,10,46.1,33.3,51
	c2.9,0.6,5.9,0.9,8.8,0.9h174.5c7.8,0,14.2-6.3,14.2-14.2c0-7.8-6.3-14.2-14.2-14.2c0,0,0,0,0,0H115c-4.4,0-8.6-2-11.3-5.4
	c-2.8-3.5-3.9-8-3-12.4c14.7-70.6,77-122.2,149-124c1.2,0,2.5,0.1,3.8,0.1s2.5,0,3.8-0.1c21.9,0.5,43.4,5.6,63.1,15
	c7.1,3.4,15.5,0.3,18.9-6.7S339.5,224.9,332.4,221.5L332.4,221.5z M256.8,203.8c-1.1,0-2.3,0-3.5,0h-3.4
	c-37.5-1.9-66.4-33.9-64.5-71.4c1.9-37.5,33.9-66.4,71.4-64.5s66.4,33.9,64.5,71.4C319.5,174.2,291.7,202,256.8,203.8L256.8,203.8z"
	/>
<linearGradient id="SVGID_2_" gradientUnits="userSpaceOnUse" x1="300.0568" y1="334.9568" x2="434.7232" y2="334.9568">
	<stop  offset="0" style="stop-color:#F98443"/>
	<stop  offset="1" style="stop-color:#F74873"/>
</linearGradient>
<path class="st1" d="M420.6,320.8h-39v-39c0-7.8-6.4-14.2-14.2-14.2c-7.8,0-14.2,6.3-14.2,14.2v39h-39c-7.8,0-14.2,6.4-14.2,14.2
	c0,7.8,6.3,14.2,14.2,14.2h39v39c0,7.8,6.3,14.2,14.2,14.2c7.8,0,14.2-6.3,14.2-14.2c0,0,0,0,0,0v-39h39c7.8,0,14.2-6.4,14.2-14.2
	C434.7,327.1,428.4,320.8,420.6,320.8z"/>
</svg>
