<?xml version="1.0" encoding="utf-8"?>
<!-- Generator: Adobe Illustrator 24.0.1, SVG Export Plug-In . SVG Version: 6.00 Build 0)  -->
<svg version="1.1" id="Capa_1" xmlns="http://www.w3.org/2000/svg" xmlns:xlink="http://www.w3.org/1999/xlink" x="0px" y="0px"
	 viewBox="0 0 512 512" style="enable-background:new 0 0 512 512;" xml:space="preserve">
<style type="text/css">
	.st0{fill:#FFFFFF;}
</style>
<g>
	<path class="st0" d="M246.9,333H72l11.7,68h151.1C233.4,378.2,237.3,354.8,246.9,333z"/>
	<path class="st0" d="M239.5,431H88.8l3.3,19.3c6.6,39.2,28.4,61.7,59.9,61.7h142.2C267.9,492.2,248.3,463.8,239.5,431L239.5,431z"
		/>
	<path class="st0" d="M483.5,281c4-9.2,3-12.8,3-51.6c0-20.1-16.3-36.4-36.4-36.4h-33.3L324.9,8.3c-3.7-7.4-12.7-10.4-20.1-6.7
		c-7.4,3.7-10.4,12.7-6.7,20.1L383.3,193H111.7l85.2-171.3c3.7-7.4,0.7-16.4-6.7-20.1c-7.4-3.7-16.4-0.7-20.1,6.7L78.2,193H44.9
		c-20.1,0-36.4,16.3-36.4,36.4v37.2c0,20.1,16.3,36.4,36.4,36.4h219.4C317,232.8,418.1,222.6,483.5,281L483.5,281z"/>
	<path class="st0" d="M448.8,292.1c-80.3-51.4-184.3,6.6-184.3,100.4c0,65.9,53.6,119.5,119.5,119.5s119.5-53.6,119.5-119.5
		C503.5,350.5,481.7,313.5,448.8,292.1L448.8,292.1z M423.5,407h-25v25c0,8.3-6.7,15-15,15s-15-6.7-15-15v-25h-25
		c-8.3,0-15-6.7-15-15c0-8.3,6.7-15,15-15h25v-25c0-8.3,6.7-15,15-15s15,6.7,15,15v25h25c8.3,0,15,6.7,15,15
		C438.5,400.3,431.8,407,423.5,407z"/>
</g>
</svg>
