<?xml version="1.0" encoding="utf-8"?>
<!-- Generator: Adobe Illustrator 24.0.1, SVG Export Plug-In . SVG Version: 6.00 Build 0)  -->
<svg version="1.1" id="Capa_1" xmlns="http://www.w3.org/2000/svg" xmlns:xlink="http://www.w3.org/1999/xlink" x="0px" y="0px"
	 viewBox="0 0 512 484" style="enable-background:new 0 0 512 484;" xml:space="preserve">
<style type="text/css">
	.st0{fill:#FFFFFF;}
</style>
<title>food-delivery-2</title>
<path class="st0" d="M484.8,144H398c-15,0-27.2,12.2-27.2,27.2v99.9h-32.5c1.8-6.6,2.5-14.3,2-23.3l0,0
	c-0.7-38.1-7.6-70.1-20.5-95.3c-10-19.6-21.7-31.3-31.8-38.3c11.8-12.1,18.6-29.4,18.6-49.2c0.1-35.9-28.5-65-63.6-65
	s-63.6,29.1-63.6,64.9c0,4.1,3.4,7.5,7.5,7.5l0,0h5.1c-0.5,2.9-0.7,5.7-0.7,8.6c0,24.8,17.5,46.1,41.8,51
	c-2.5,9.3-3.7,20.2-3.7,32.6l-18.7,16.1l-45.5,3.7L112.7,167c-4.8-1.6-10.3-3.4-15,0s-4.7,9.3-4.7,11.2v39c0,4.1,3.4,7.5,7.5,7.5
	h8.9l-13.7,47.4c-1.2,4,1.1,8.1,5.1,9.3c4,1.2,8.1-1.1,9.3-5.1l14.9-51.5h21.3c-26.5,80.9-11.4,134.9,11.9,189.5h-13.5l-56.1-62.8
	l11.9-41c1.2-4-1.1-8.1-5.1-9.3c-4-1.2-8.1,1.1-9.3,5.1l-11.4,39.2C39.2,345.1,8.2,369.4,0.2,404c-0.9,4,1.6,8.1,5.6,9l10.6,2.5
	c-3.1,31.5,20,59.6,51.5,62.7c25.9,2.5,50.3-12.7,59.4-37.1l8.4,1.9c2.5,0.6,4.9,0.9,7.2-0.4c2.2-1.2,3.7-3.3,4.2-5.8s0.9-5,1.2-7.5
	h156.9c5,31.2,31.5,54.7,63.2,54.7s58.2-23.5,63.2-54.7h7.1c2.9,0.2,5.7-0.8,7.8-2.8c1.9-2,2.8-4.6,2.6-7.3
	c-0.2-6.9-1.2-13.7-3.1-20.3c6-36.3,0.2-58.4-8.3-75.6c5.6-3.6,9-9.9,9-16.5v-20.6h37.9c15,0,27.1-12.2,27.1-27.2v-87.8
	C512,156.2,499.8,144,484.8,144z M96.1,456.9c-9.5,6-21,7.9-32,5.4l0,0c-20-4.6-33.8-22.9-32.8-43.4l81.3,18.7
	C109.2,445.6,103.4,452.3,96.1,456.9L96.1,456.9z M133.6,427L16.9,400.2c9.1-24.8,33.3-40.9,59.7-39.6l57.1,63.9
	C133.8,425.4,133.7,426.2,133.6,427z M246.9,296.4c-2.2,5.7-2.2,12.8-2.2,22.6v28.3h-27.5v-38.8c0-43.9,24-51.7,34.7-53h73.5
	c-0.3,10-2.5,17-6.8,21.5c-5,5.2-13.5,7.8-26,7.8h-26.9C256.2,284.8,249.8,288.7,246.9,296.4L246.9,296.4z M244.7,362.3v17.9h-53.5
	c0.6-5.6,2.3-9.9,5.2-12.8c4.2-4.4,10.2-5.1,13.4-5.1H244.7z M325.2,240.4H257c-2.9-9.1-5.3-18.4-7.2-27.8l20.7-13.5
	c11.3-7.4,17.2-17.7,16.2-28.5c-1.1-9.7-7.5-18.1-16.6-21.7c-8.3-3.3-17.3-2.3-25.2,2.8c0.5-6.4,1.7-12.8,3.6-19
	c3.2-0.3,6.4-1,9.5-1.9c6.2-1.4,12.1-3.7,17.5-6.9C290,132.6,321.8,160.6,325.2,240.4L325.2,240.4z M195,57.4
	c3.5-24,23.8-42.4,48.1-42.4c26.8,0,48.6,22.4,48.6,49.9c0,22.4-10.7,40.4-28,48.3V73.8c0-6.8-2.6-15.2-15.1-16.3H248L195,57.4z
	 M206.3,81c0-2.9,0.3-5.8,1-8.6h40.2c0.5,0,0.8,0.1,1,0.2c0.1,0.4,0.1,0.8,0.1,1.2v43.9c-1.8,0.3-3.6,0.4-5.4,0.4h-0.1
	C222.8,118,206.3,101.4,206.3,81L206.3,81z M196.6,197l17.8-1.4c1.6-0.1,3.1-0.8,4.3-1.8l32.1-27.6l0,0c2.6-2.4,6-3.9,9.6-4
	c5.8,0,10.6,4.3,11.4,10.1c0.5,5.1-2.8,10.2-9.4,14.5L226.7,210h-30L196.6,197L196.6,197z M164.9,199.6l16.7-1.4v11.6h-19.4
	c-2.5,0-3.1-2.1-3.2-3.8c-0.3-3.3,2.2-6.2,5.5-6.5C164.6,199.5,164.7,199.5,164.9,199.6L164.9,199.6z M147.1,194.4
	c-2.8,4.6-3.8,10.1-2.8,15.4c0,0,0,0,0,0.1H108v-28.5l39.1,12.9V194.4L147.1,194.4z M162.2,224.9h66.6c1.4,0,2.9-0.4,4.1-1.2
	l3.4-2.2c1.6,7.2,3.5,14.2,5.5,20.9c-15.3,4.5-39.6,19.1-39.6,66.2V348c-6.4,1.2-12.2,4.3-16.7,9c-5.5,5.7-8.6,13.5-9.4,23.2H161
	C145.8,336.3,140.1,289.5,162.2,224.9L162.2,224.9z M174.6,414.3c-2.8-6.4-5.4-12.7-8-19.1h77.9c10.1,0,15.2-4.6,15.2-13.7v-55.1
	h59.2c4.1,0,7.5-3.4,7.5-7.5s-3.4-7.5-7.5-7.5h-59.1c0.1-4.3,0.4-7.7,1.1-9.8c0.4-1,0.7-1.9,4.8-1.9h26.9c16.9,0,28.9-4.1,36.9-12.5
	c0.4-0.4,0.7-0.8,1.1-1.2h101.3v20.6c0,2.6-2.1,4.7-4.7,4.8h-74.7c-4.1,0-7.5,3.4-7.5,7.5s3.4,7.5,7.5,7.5h70.3
	c5.9,11,11.3,24.7,11,46.3c-26.2-36.5-77.1-44.8-113.6-18.6c-3.7,2.7-7.2,5.6-10.4,8.9c-13.6,13.8-22,31.9-23.6,51.2H174.6V414.3z
	 M368.6,469.1c-23.5,0-43.2-16.9-48-39.7h96C411.8,452.2,392,469.1,368.6,469.1z M425.1,414.4H301.2c3.7-33.9,32-60.4,66.4-60.4
	c29.5,0,55.5,19.4,63.8,47.7c0,0.1,0,0.2,0.1,0.3c1.2,4,2,8.2,2.5,12.4H425.1z M497,258.9c0,6.7-5.4,12.2-12.2,12.2h-99v-38.7H497
	V258.9z M497,217.4H385.8v-16H497V217.4z M497,186.4H385.8v-15.2c0-6.7,5.5-12.1,12.2-12.2h86.8c6.7,0,12.1,5.4,12.2,12.2V186.4z"/>
</svg>
