<?xml version="1.0" encoding="utf-8"?>
<!-- Generator: Adobe Illustrator 24.0.1, SVG Export Plug-In . SVG Version: 6.00 Build 0)  -->
<svg version="1.1" id="Solid" xmlns="http://www.w3.org/2000/svg" xmlns:xlink="http://www.w3.org/1999/xlink" x="0px" y="0px"
	 viewBox="0 0 512 512" style="enable-background:new 0 0 512 512;" xml:space="preserve">
<style type="text/css">
	.st0{fill:#FFFFFF;}
</style>
<path class="st0" d="M96,256c0,7.8,2.8,15.3,8,21.1V152H88v96C92.4,248,96,251.6,96,256L96,256z"/>
<path class="st0" d="M56,176h16v72H56V176z"/>
<path class="st0" d="M152,368h96v16h-96V368z"/>
<path class="st0" d="M264,368v16h62.7c2.5-5.7,5.6-11,9.3-16H264z"/>
<path class="st0" d="M200,176h-16v36.1c5.2-1.8,10.5-3.1,16-3.7V176z"/>
<path class="st0" d="M288,120h184v16H288V120z"/>
<path class="st0" d="M376,56v48h16V56c0-13.2-10.8-24-24-24h-56v16h56C372.4,48,376,51.6,376,56z"/>
<path class="st0" d="M246.6,304h-45.3c4.4,12.5,18.1,19,30.6,14.6C238.8,316.2,244.2,310.8,246.6,304z"/>
<path class="st0" d="M310.6,304h-45.3c4.4,12.5,18.1,19,30.6,14.6C302.8,316.2,308.2,310.8,310.6,304z"/>
<path class="st0" d="M352,320c10.2,0,19.2-6.4,22.6-16h-45.3C332.8,313.6,341.8,320,352,320z"/>
<path class="st0" d="M192,320c-9.3,12.4-24.8,18.3-40,15.2V352h200.1c2.5-1.9,5.2-3.6,7.9-5.2v-11.6c-15.2,3.1-30.7-2.8-40-15.2
	c-13.2,17.7-38.3,21.3-55.9,8.1c-3.1-2.3-5.8-5-8.1-8.1c-13.2,17.7-38.3,21.3-55.9,8.1C197,325.8,194.3,323,192,320L192,320z"/>
<path class="st0" d="M459.8,206.4L424.6,232c-14.6,10.6-33.4,13.5-50.5,7.8c-3.8-1.3-7.8-2-11.9-2c9,12.2,13.8,27,13.8,42.2v8h8
	c4.4,0,8,3.6,8,8c0,0.9,0,1.8-0.1,2.7c8.4,0,16.5-2.7,23.3-7.6l41.5-30.1L459.8,206.4z"/>
<path class="st0" d="M463,152H297l3.3,56h3.7c16.1,0,31.7,5.4,44.4,15.4c10.2-2.5,20.9-2.1,30.8,1.3c12.2,4.1,25.6,2,36-5.6
	l45.9-33.4L463,152z"/>
<path class="st0" d="M390.2,310c-0.6,2.2-1.7,5-3.4,8.2c-0.8,1.5-1.8,3.1-3.2,5c-2.8,3.7-9.5,9.8-12.3,10.9c0.1,6,0.2,11.9,0.4,17.9
	c-6,3.4-21.1,12.9-30.8,32c-11,21.4-8.4,41.4-7.3,48h115.3l5.6-150.4l-26.9,17.1c-4.5,3-11.3,6.7-20.3,9
	C400.7,309.5,394.7,310,390.2,310z"/>
<path class="st0" d="M168,220.2V152h-16v82.8C156.6,229.2,162,224.2,168,220.2z"/>
<path class="st0" d="M152,400v8c0,13.2,10.8,24,24,24h145.6c-2.1-10.6-2.1-21.4,0-32H152z"/>
<path class="st0" d="M120,287c5.2,1.4,10.8,1.4,16,0V176h-16V287z"/>
<path class="st0" d="M160,320c10.2,0,19.2-6.4,22.6-16h-45.3C140.8,313.6,149.8,320,160,320z"/>
<path class="st0" d="M136,328c-8-6-13.4-14.7-15.3-24.5c-20.4-3.2-36.5-19.1-40-39.4H40.8l14.5,152h81.5c-0.5-2.6-0.8-5.3-0.8-8V328
	z"/>
<path class="st0" d="M360,280c0-30.9-25.1-56-56-56h-96c-30.9,0-56,25.1-56,56v8h208V280z M208,256c-4.4,0-8-3.6-8-8s3.6-8,8-8
	s8,3.6,8,8S212.4,256,208,256z M232,272c-4.4,0-8-3.6-8-8s3.6-8,8-8s8,3.6,8,8S236.4,272,232,272z M256,256c-4.4,0-8-3.6-8-8
	s3.6-8,8-8s8,3.6,8,8S260.4,256,256,256z M280,272c-4.4,0-8-3.6-8-8s3.6-8,8-8s8,3.6,8,8S284.4,272,280,272z M304,256
	c-4.4,0-8-3.6-8-8s3.6-8,8-8s8,3.6,8,8S308.4,256,304,256z"/>
<path class="st0" d="M487.9,453.8"/>
<path class="st0" d="M353.8,363"/>
<path class="st0" d="M308.1,469.9"/>
</svg>
