<?xml version="1.0" encoding="utf-8"?>
<!-- Generator: Adobe Illustrator 24.0.1, SVG Export Plug-In . SVG Version: 6.00 Build 0)  -->
<svg version="1.1" id="_x33_0" xmlns="http://www.w3.org/2000/svg" xmlns:xlink="http://www.w3.org/1999/xlink" x="0px" y="0px"
	 viewBox="0 0 512 512" style="enable-background:new 0 0 512 512;" xml:space="preserve">
<style type="text/css">
	.st0{fill:#FFFFFF;}
</style>
<path class="st0" d="M56,248c0,8.8,7.2,16,16,16h0.6c-0.4-2.6-0.6-5.3-0.6-8v-24C63.2,232,56,239.2,56,248z"/>
<path class="st0" d="M184,232v24c0,2.7-0.3,5.4-0.6,8h0.6c8.8,0,16-7.2,16-16C200,239.2,192.8,232,184,232z"/>
<path class="st0" d="M416,384c17.6,0,32-14.4,32-32v-18.2c-11.8-3.9-22.8-10.3-32-18.6c-9.2,8.3-20.2,14.7-32,18.6V352
	C384,369.6,398.4,384,416,384z"/>
<path class="st0" d="M416,292.7l7.8,7.8c8.2,8.2,18.3,14.4,29.2,18.1c6.6,2.2,10.9,8.3,10.9,15.2v4.3c2.2-3.5,4-7.2,5.3-11.1
	c1.8-5.5,2.7-11.2,2.7-16.9v-6c0-8.6-2.8-17.1-8-24c-7.5-10-19.5-16-32-16h-32c-12.5,0-24.5,6-32,16c-5.2,6.9-8,15.4-8,24v6
	c0,5.8,0.9,11.5,2.7,16.9c1.3,3.9,3.1,7.6,5.3,11.1v-4.3c0-6.9,4.4-13,10.9-15.2c11-3.7,21.1-9.9,29.2-18.1L416,292.7z"/>
<path class="st0" d="M168,256v-32c0-4.4-3.6-8-8-8h-16c-14.5,0-27.2-7.7-34.2-19.3l-11.7,4.7C92,203.8,88,209.7,88,216.2V256
	c0,22.1,17.9,40,40,40S168,278.1,168,256z"/>
<path class="st0" d="M216,196.8c0,2.6-0.2,5.3-0.5,7.9C231.2,191.6,251,184,272,184s40.2,7.4,55.4,19.7l9.7-9.7l-5.1-5.1
	c-8.2-8.1-10.4-20.6-5.8-31.8c4.7-11.4,15.1-18.5,26.5-18.5h7.3v-21.3h-7.3c-11.4,0-21.8-7.1-26.4-18.2c-4.8-11.5-2.6-23.9,5.6-32.1
	l5.1-5.1l-15-15l-5.1,5.1c-8.1,8.2-20.6,10.5-31.8,5.8c-11.4-4.7-18.5-15.1-18.5-26.5V24h-21.3v7.3c0,11.4-7.1,21.8-18.2,26.4
	c-11.5,4.8-23.9,2.6-32.1-5.6l-5.1-5.1l-15,15l5.1,5.1c8.2,8.1,10.4,20.6,5.8,31.8c-4.7,11.4-15.1,18.5-26.5,18.5H152v3.8
	C188.3,127.3,216,158.8,216,196.8L216,196.8z M256,81.3c25.8,0,46.7,20.9,46.7,46.7s-20.9,46.7-46.7,46.7s-46.7-20.9-46.7-46.7
	S230.2,81.3,256,81.3z"/>
<path class="st0" d="M148.8,318.4l-2.2-9.6c-5.8,2.1-12.1,3.3-18.6,3.3s-12.8-1.2-18.6-3.2l-2.2,9.6c-1.1,5-3.4,9.5-6.5,13.3
	l27.3,21.9l27.3-21.9C152.2,327.9,149.9,323.4,148.8,318.4L148.8,318.4z"/>
<path class="st0" d="M101.4,405.1l2.2-8.9l-2.3-7l-6.9,4.2C96.5,397.4,98.9,401.3,101.4,405.1z"/>
<path class="st0" d="M175.5,343.1l-1.8-0.4c-1.7-0.3-3.3-0.8-4.9-1.4l-26.9,21.5l26.2,15.7C172.3,367.3,174.7,355.3,175.5,343.1
	L175.5,343.1z"/>
<path class="st0" d="M56,196.8c0,6.6,1,13,3.1,19.2l0.8,2.3c3.7-1.5,7.8-2.4,12.1-2.4l0,0c0.1-13.1,8-24.6,20.1-29.5l12.3-4.9
	c-0.3-1.8-0.4-3.7-0.4-5.6v-24h16v24c0,13.2,10.8,24,24,24h16c10.4,0,19.2,6.7,22.5,16h1.5c4.3,0,8.4,0.9,12.1,2.4l0.8-2.3
	c2.1-6.2,3.1-12.7,3.1-19.2c0-33.5-27.3-60.8-60.8-60.8H72c-8.8,0-16,7.2-16,16V196.8z"/>
<path class="st0" d="M154.6,405.1c2.5-3.8,4.9-7.7,7-11.8l-6.9-4.2l-2.3,7L154.6,405.1z"/>
<path class="st0" d="M87.2,341.4c-1.6,0.6-3.2,1.1-4.9,1.4l-1.8,0.4c0.8,12.2,3.2,24.2,7.4,35.5l26.2-15.7L87.2,341.4z"/>
<path class="st0" d="M128,363.8L128,363.8L128,363.8L128,363.8L128,363.8z"/>
<path class="st0" d="M117.8,387.9h20.5l2.4-7.1l-12.6-7.6l-12.6,7.6L117.8,387.9z"/>
<path class="st0" d="M385.5,417.9c4.2,8.5,6.5,18,6.5,28V488h16v-37.8l-19.8-33L385.5,417.9z"/>
<path class="st0" d="M337.4,398.8l-19.3-3.9c-0.8-0.2-1.6-0.4-2.3-0.6L280,465.9V488h96v-42.1C376,423.1,359.8,403.3,337.4,398.8
	L337.4,398.8z"/>
<path class="st0" d="M456.9,420.5l-13.1-3.3l-19.8,33V488h64v-27.7c0-11-4.3-21.3-12-29.1C470.7,426,464.1,422.3,456.9,420.5
	L456.9,420.5z"/>
<path class="st0" d="M260.9,424l11.1,22.1l11.1-22.1H260.9z"/>
<path class="st0" d="M429.3,398.1c-4.2,1.2-8.7,1.9-13.3,1.9s-9.1-0.7-13.3-1.9l-2.2,8.6l15.4,25.7l15.4-25.7L429.3,398.1z"/>
<path class="st0" d="M137.8,403.9h-19.5l-4.2,16.9c4.3,4.6,9,8.9,14,12.8c5-4,9.7-8.2,14-12.8L137.8,403.9z"/>
<path class="st0" d="M191.5,346.7c-3.3,39.8-23.5,76.9-55.5,101.2V488h96v-87.7C232,375.3,215.2,353.6,191.5,346.7z"/>
<path class="st0" d="M216,304v-31c0-18.4,12.5-34.3,30.3-38.8l4.3-1.1c4.6-10.1,14.8-17.1,26.6-17.1h2.8v16h-2.8
	c-7.3,0-13.2,5.9-13.2,13.2c0,6.7,5,12.3,11.6,13.1l24.4,3c16,2,28,15.7,28,31.8V304c0,18.5-9,34.8-22.8,45l3.5,17.7
	c1.3,6.4,6.2,11.3,12.5,12.6l10.8,2.2c7.8-18,12-37.6,12-57.2V310v-6v-32c0-39.7-32.3-72-72-72c-24.3,0-46.8,12.5-60.1,32.6
	c2.5,4.6,4.1,9.8,4.1,15.4c0,11.8-6.5,22-16,27.6v48.7c0,2.8,0.2,5.6,0.4,8.4c15,5.4,27.5,15.6,36,28.7l2.5-12.3
	C225,338.8,216,322.5,216,304L216,304z"/>
<path class="st0" d="M248,488h16v-22.1l-16-32V488z"/>
<path class="st0" d="M64.5,346.7C40.8,353.6,24,375.3,24,400.3V488h96v-40.2C88.1,423.5,67.9,386.6,64.5,346.7L64.5,346.7z"/>
<path class="st0" d="M291.1,408l10.8-21.6c-4.4-4.4-7.6-10.1-8.9-16.5l-2.6-13c-5.8,2-12,3.2-18.4,3.2s-12.6-1.2-18.4-3.2L251,370
	c-0.9,4.5-2.7,8.6-5.3,12.3c1.3,5.1,2.1,10.3,2.2,15.7l5.1,10.1h38.1V408z"/>
<path class="st0" d="M312,304v-10.8c0-8-6-14.9-14-15.9l-24.4-3c-12.9-1.6-23-11.6-25.2-24.1c-9.8,3.2-16.4,12.4-16.4,22.8v31
	c0,22.1,17.9,40,40,40S312,326.1,312,304L312,304z"/>
</svg>
