<?xml version="1.0" encoding="utf-8"?>
<!-- Generator: Adobe Illustrator 24.0.1, SVG Export Plug-In . SVG Version: 6.00 Build 0)  -->
<svg version="1.1" id="Capa_1" xmlns="http://www.w3.org/2000/svg" xmlns:xlink="http://www.w3.org/1999/xlink" x="0px" y="0px"
	 viewBox="0 0 287.8 287.8" style="enable-background:new 0 0 287.8 287.8;" xml:space="preserve">
<style type="text/css">
	.st0{fill:#FFFFFF;}
</style>
<g>
	<path class="st0" d="M134.2,279.1c-15.2,0-26.7-12.3-26.7-27.5c0-15.2,11.5-26.6,26.7-26.6c15.2,0,27.5,11.5,27.5,26.6
		C161.6,266.8,149.3,279.1,134.2,279.1z"/>
	<path class="st0" d="M265.5,176.6c-1.7,7.1-2.3,19.5-6.8,25.2c-2.7,3.5-6.8,5.6-11.9,5.6H92.2c-10,0-18.1-8-18.1-18
		c0-6.5-18.5-98.2-25.5-132.6c-1.5-7.1-8.6-13-15.8-13.1l-14.7-0.1C-1.7,43.6,0,24.8,0,24.8c0.4-6.6,2.6-10.6,5.4-12.9
		c5.6-4.7,18.2-3,25.3-3l12.9,0c22.1,0,30.9,12.7,34.3,22.9c2.3,6.9,3.5,18.7,5.1,25.9l22.1,100.8c1.6,7.1,8.7,12.9,16,12.9h101.1
		c7.3,0,14.4-5.8,15.9-12.9L254.7,80c2.1-9.2,5.6-13.6,9.1-15.5c6.4-3.4,19.9,1.6,22.4,8.5c3.8,10.2-0.6,27.4-0.6,27.4
		S272.7,146.5,265.5,176.6z"/>
	<path class="st0" d="M224.4,279.1c-15.2,0-26.6-12.3-26.6-27.5c0-15.2,11.5-26.6,26.6-26.6c15.2,0,27.5,11.5,27.5,26.6
		C251.9,266.8,239.5,279.1,224.4,279.1z"/>
	<path class="st0" d="M135.1,153.3c-5,0-9-4.1-9-9c0-5,4-9,9-9c5,0,9,4.1,9,9C144.1,149.3,140.1,153.3,135.1,153.3z"/>
	<path class="st0" d="M171.2,153.3c-5,0-9-4.1-9-9c0-5,4-9,9-9c5,0,9,4.1,9,9C180.2,149.3,176.2,153.3,171.2,153.3z"/>
	<path class="st0" d="M207.3,153.3c-5,0-9-4.1-9-9c0-5,4-9,9-9c5,0,9,4.1,9,9C216.3,149.3,212.3,153.3,207.3,153.3z"/>
	<path class="st0" d="M117,117.2c-5,0-9-4-9-9c0-5,4.1-9,9-9c5,0,9,4.1,9,9C126.1,113.2,122,117.2,117,117.2z"/>
	<path class="st0" d="M153.1,99.2c5,0,9,4,9,9c0,5-4,9-9,9c-5,0-9-4-9-9C144.1,103.2,148.2,99.2,153.1,99.2z"/>
	<path class="st0" d="M189.3,99.2c5,0,9,4,9,9c0,5-4,9-9,9c-5,0-9-4-9-9C180.2,103.2,184.3,99.2,189.3,99.2z"/>
	<path class="st0" d="M225.4,99.2c5,0,9,4,9,9c0,5-4,9-9,9c-5,0-9-4-9-9C216.3,103.2,220.4,99.2,225.4,99.2z"/>
	<path class="st0" d="M207.3,81.1c-5,0-9-4.1-9-9c0-5,4-9,9-9c5,0,9,4,9,9C216.3,77.1,212.3,81.1,207.3,81.1z"/>
	<path class="st0" d="M171.2,81.1c-5,0-9-4.1-9-9c0-5,4-9,9-9c5,0,9,4,9,9C180.2,77.1,176.2,81.1,171.2,81.1z"/>
	<path class="st0" d="M135.1,81.1c-5,0-9-4.1-9-9c0-5,4-9,9-9c5,0,9,4,9,9C144.1,77.1,140.1,81.1,135.1,81.1z"/>
</g>
</svg>
