<?xml version="1.0" encoding="utf-8"?>
<!-- Generator: Adobe Illustrator 24.0.1, SVG Export Plug-In . SVG Version: 6.00 Build 0)  -->
<svg version="1.1" id="Capa_1" xmlns="http://www.w3.org/2000/svg" xmlns:xlink="http://www.w3.org/1999/xlink" x="0px" y="0px"
	 viewBox="0 0 512 512" style="enable-background:new 0 0 512 512;" xml:space="preserve">
<style type="text/css">
	.st0{fill:#FFFFFF;}
</style>
<g>
	<g>
		<path class="st0" d="M256,181c-33.1,0-60,26.9-60,60s26.9,60,60,60s60-26.9,60-60S289.1,181,256,181z"/>
	</g>
</g>
<g>
	<g>
		<path class="st0" d="M499.5,211.2l-39.8-6.5c-5-19.9-12.8-38.8-23.4-56.4l22.9-32.1c4.3-6,3.6-14.1-1.6-19.3l-42.4-42.4
			c-5.2-5.2-13.4-5.9-19.3-1.6l-32.1,22.9c-17.6-10.6-36.5-18.4-56.4-23.4l-6.5-39.8C299.6,5.3,293.3,0,286,0h-60
			c-7.3,0-13.6,5.3-14.8,12.5l-6.5,39.8c-19.9,5-38.8,12.8-56.4,23.4l-32.1-22.9c-6-4.3-14.2-3.6-19.3,1.6L54.5,96.9
			c-5.2,5.2-5.9,13.4-1.6,19.3l22.9,32.1c-10.6,17.6-18.4,36.5-23.4,56.4l-39.8,6.5C5.3,212.4,0,218.7,0,226v60
			c0,7.3,5.3,13.6,12.5,14.8l39.8,6.5c5,19.9,12.8,38.8,23.4,56.4l-22.9,32.1c-4.3,6-3.6,14.1,1.6,19.3l42.4,42.4
			c5.2,5.2,13.4,5.8,19.3,1.6l32.1-22.9c17.6,10.6,36.5,18.4,56.4,23.4l6.5,39.8c1.2,7.2,7.5,12.5,14.8,12.5h60
			c7.3,0,13.6-5.3,14.8-12.5l6.5-39.8c19.9-5,38.8-12.8,56.4-23.4l32.1,22.9c5.9,4.2,14.1,3.6,19.3-1.6l42.4-42.4
			c5.2-5.2,5.9-13.4,1.6-19.3l-22.9-32.1c10.6-17.6,18.4-36.5,23.4-56.4l39.8-6.5c7.2-1.2,12.5-7.5,12.5-14.8v-60
			C512,218.7,506.7,212.4,499.5,211.2z M256,421c-91,0-165-74-165-165S165,91,256,91s165,74,165,165S347,421,256,421z"/>
	</g>
</g>
<g>
	<g>
		<path class="st0" d="M325.3,297.7C308.8,317.9,284,331,256,331s-52.8-13.1-69.3-33.3c-14.4,12.7-24.9,29.5-30.7,48.2
			c24.7,27.5,60.2,45.1,99.9,45.1s75.2-17.6,99.9-45.1C350.2,327.2,339.7,310.5,325.3,297.7z"/>
	</g>
</g>
</svg>
